<svg id="Capa_1" data-name="Capa 1" xmlns="http://www.w3.org/2000/svg" viewBox="0 0 295.2 295.2"><defs><style>.cls-1{fill:#737a7b;}.cls-2{fill:#894c4c;}.cls-3{fill:#eb9d78;}.cls-4{fill:#8e4f52;}.cls-5{fill:#e0e0e1;}.cls-6{fill:#443845;}.cls-7{fill:#cf8a5b;}.cls-8{fill:#df5c5d;}.cls-9{fill:#2a1c21;}.cls-10{fill:#352420;}</style></defs><title>avatarN</title><path class="cls-1" d="M337.48,187.44a147.6,147.6,0,1,0-223.66,126.5c16-9.54,37.93-17.32,51.49-30.94.32.29-.12,3.28.2,3.57,1.34,15.32,16.18,28,32.93,25.25,12-2,20.83-9.27,22.6-18.7.86-1.37,1.73-2.74,2.59-4.12,13.84,10.12,29.46,16.75,45.21,23.13A147.48,147.48,0,0,0,337.48,187.44Z" transform="translate(-42.29 -39.85)"/><path class="cls-2" d="M237.27,238.15a7.61,7.61,0,0,1,1.19-6.09c7.55-10.79,6.75-22.93,6-35.18-.31-4.78-4.34-11.55,5-12.72,13.13,3.33,18.46,9.76,18.51,22.3.05,13.31-8.79,25.87-20.66,29.22C244,236.62,240.61,237.33,237.27,238.15Z" transform="translate(-42.29 -39.85)"/><path class="cls-3" d="M245.74,214.08c-1.7-20.8-1.68-20.8-3.46-41.6.24-1.68.42-3.4.53-5.15q-.19-11.85-.38-23.7c-1.57-4.69-4.26-17.6-5.83-22.29-2.95-.09-5.25-1.75-7.69-3.41-30.83-21-61.86-20.57-93-.85-.71.44-1.45.83-2.19,1.23h-.15v.08c-1.45.78-2.91,1.53-4.36,2.31-2.84,4.39-8.52,17.48-9,22.62a8.18,8.18,0,0,1-1.45,6c1.84,20,10,40.31,11.87,60.33-.33,2-.58,4-.73,6.15,1.48,26.27,8.24,25.73,9.65,31q.1.78.24,1.56c0,.17,0,.35,0,.54l.24.75a39.44,39.44,0,0,0,2.42,7.44c.12.38.24.76.39,1.21a1,1,0,0,0,.17,0c7.63,15.93,25.72,27.14,46.84,27.14,22.87,0,42.2-13.15,48.51-31.21h0c2.88-4.37,4.64-20.87,5.12-26C243.35,226.1,244.38,215.82,245.74,214.08Z" transform="translate(-42.29 -39.85)"/><path class="cls-2" d="M133.64,221.53c.06,7.9,4.36,15.8,4.43,23.69-14.29-.63-28-7.1-32.36-19.86-3.94-11.45-2.25-21.68,7.82-29.55,16.31-3.78,17.26-2.95,15,14.19C127.82,215.06,131,218.1,133.64,221.53Z" transform="translate(-42.29 -39.85)"/><path class="cls-3" d="M223.63,289c-.86,1.38-1.73,2.75-2.59,4.12-3.8,1.11-6.14,4.28-9.19,6.44-14.55,10.31-22.56,11.62-37,1.75-5-3.4-6.83-9.32-9.93-14.21l.66-.28c18.79,2.39,37.59,5.34,56-2C222.28,286.19,223,287.6,223.63,289Z" transform="translate(-42.29 -39.85)"/><path class="cls-4" d="M221.61,284.79c-18.44,7.37-37.24,4.42-56,2l-.93-3.24c1.06-1.38,2.11-2.76,3.17-4.13A155.94,155.94,0,0,0,216.93,278C219.16,279.78,221,281.85,221.61,284.79Z" transform="translate(-42.29 -39.85)"/><path class="cls-5" d="M221,293.12c-1.77,9.43-10.57,16.71-22.6,18.7-16.75,2.77-31.59-9.93-32.93-25.25-.32-.29.12-3.28-.2-3.57-13.56,13.62-35.48,21.4-51.49,30.94a147.58,147.58,0,0,0,155-1.81c-15.75-6.38-31.37-13-45.21-23.13C222.77,290.38,221.9,291.75,221,293.12Z" transform="translate(-42.29 -39.85)"/><path class="cls-5" d="M163.08,287.28a6,6,0,0,1,1.84-.17c3.1,4.88,5,10.8,9.93,14.2,14.44,9.87,22.45,8.56,37-1.75,3.05-2.16,5.39-5.33,9.19-6.44-1.77,9.43-10.57,16.71-22.6,18.7C181.69,314.59,164.42,302.6,163.08,287.28Z" transform="translate(-42.29 -39.85)"/><path class="cls-3" d="M148.52,170.93l2.34-1.47c.08.46.38,1.18.21,1.32-.88.71-1.9,2.16-2.83,0Z" transform="translate(-42.29 -39.85)"/><path class="cls-3" d="M148.24,170.8c2.27,1.21.46,2.23-.15,3.31L146,172.48l2.57-1.55Z" transform="translate(-42.29 -39.85)"/><path class="cls-6" d="M233.7,182.09c-9.87-.59-18.78-1.1-27.69-1.68-1.94-.13-4.78.39-4.93-2.3-.11-1.77,1.19-4,2.48-5.4C210.91,164.47,226.58,169,233.7,182.09Z" transform="translate(-42.29 -39.85)"/><path class="cls-6" d="M144.68,182.09c9.87-.59,18.78-1.1,27.68-1.68,1.95-.13,4.79.39,4.94-2.3.11-1.77-1.2-4-2.49-5.4C167.47,164.47,151.79,169,144.68,182.09Z" transform="translate(-42.29 -39.85)"/><path class="cls-7" d="M187.1,259.57c-3.22,0-6.44.11-9.66,0-3.48-.16-6.63-1.21-6.47-5.46s3.54-5,6.91-5q9.66-.18,19.32,0c3.35.06,6.83.7,7,5,.18,5-3.71,5.46-7.42,5.61-3.22.13-6.44,0-9.66,0Z" transform="translate(-42.29 -39.85)"/><path class="cls-7" d="M196.92,224.87c-.36,4.31-1.61,8.69-6.41,9.17-5.67.57-7.67-4-7.65-8.73s1.75-9.5,7.2-9.4C194.84,216,196.08,220.68,196.92,224.87Z" transform="translate(-42.29 -39.85)"/><path class="cls-8" d="M209.05,242.5c-15.83,8.24-30.15,4.17-43.68-6.36C179.66,240.92,194,245.21,209.05,242.5Z" transform="translate(-42.29 -39.85)"/><path class="cls-9" d="M167,200.53c-.78,3.12-.33,7.75-5,7.48-3.89-.23-3.65-4.45-3.6-7.41.07-3.23-.58-8,3.93-8.08C166.52,192.48,166.52,197.1,167,200.53Z" transform="translate(-42.29 -39.85)"/><path class="cls-9" d="M217.17,199.94c-.27,3.56-.13,7.92-4.55,8.05-4,.11-4-4.08-4.07-7.09-.05-3.37-.17-8.11,3.79-8.49C216.7,192,216.56,196.79,217.17,199.94Z" transform="translate(-42.29 -39.85)"/><path class="cls-10" d="M241.76,147.36c-5.87-2.76-11.49-6.05-17.11-9.2-8.19-4.6-16.88-6.64-26.17-7.21a150.36,150.36,0,0,0-23.44.36,87.83,87.83,0,0,0-27.33,7.36,89,89,0,0,0-11.4,6,8.81,8.81,0,0,0-4.41,6.3,86.42,86.42,0,0,0-1.46,13.71c0,3.8.36,40,0,43.81-.17,1.29.32,9.37-.92,9.86-.82.31-4-27.39-4.44-28-.9-7.63-6.15-28.15-6.09-35.84a93.37,93.37,0,0,1,.88-13.26c.27-2-2.49-1.24-4.35-3-1.52-1.39-.59-2.76,1.07-3.5,2.89-1.26,7.29-11.93,5.44-14.62-1.3-1.84-1-3.68.88-4.76.93-.47,5.7-.9,6.67-1.26,1.42-.59,2.65-1,.89-2.93-1.44-1.58-.67-3,1.13-3.79a4.82,4.82,0,0,1,1.76-.33c4.16-.21,6-2.29,5.81-6.73a22.37,22.37,0,0,1,0-4.33c.36-2.13,1.64-2.67,3.39-2.26a17.16,17.16,0,0,1,3.12,1.34c2.16.92,3.4.34,4.06-2,.07-.26.09-.54.15-.8,1.29-5.52,1.77-5.77,6.4-3,2.08,1.25,3.61.74,4.62-1.56a18,18,0,0,1,.94-2.22c1.4-2.26,2.91-2.52,4.56-.44s2.89,1.84,4.56.36c.64-.59,1.46-1,2.14-1.54a5.07,5.07,0,0,1,6.52-.32c2.36,1.53,5.07,1.38,7.61,2,4.78,1.13,9.79.92,14.42,2.76.75.29,1.4,1,2.4.5,2.74-1.37,4.41.3,5.79,2.46,2.19,3.34,6.19-2.72,10-3.72.51-.13,1-.18,1.53-.33,3.72-1.12,5.79.59,4.17,4.35a15.61,15.61,0,0,0-.36,1.57c-.63,1.94,0,2.56,1.86,2,1-.29,2-.62,3-.84,3-.66,4.53.92,4,4s4.83,11.36,7.71,10.75c.51-.1,3.59-6.85,4.1-6.91,5.88-.65,4.31,7.17,2.8,13a7.48,7.48,0,0,0,.73,5.31c2.43,5.07-3.7,17.13-3.92,22.7C245.35,146.87,244.49,147.71,241.76,147.36Z" transform="translate(-42.29 -39.85)"/><path class="cls-10" d="M244,200.26c-2.36,2.54-.81-10.63-1.11-12-.22-3.68-.34-4.52-.34-4.52-.23-10.46-6.29-27-8.36-36.42-.55-2.49-.91-5.1.28-7.39,1.43-2.77,2.5,0,3.58.92a35.83,35.83,0,0,1,2.94,3.6c1.94,3.76,3,8.94,3,14.6C244.31,177.26,247.23,182.09,244,200.26Z" transform="translate(-42.29 -39.85)"/></svg>