<svg id="Capa_1" data-name="Capa 1" xmlns="http://www.w3.org/2000/svg" viewBox="0 0 351.77 348.73"><defs><style>.cls-1{fill:#737a7b;}</style></defs><title>dots</title><path class="cls-1" d="M352.28,66.77h-1.86a22.4,22.4,0,1,1,0-44.79h1.86a22.4,22.4,0,1,1,0,44.79Z" transform="translate(-22.9 -21.98)"/><path class="cls-1" d="M251.48,66.77h-1.87a22.4,22.4,0,0,1,0-44.79h1.87a22.4,22.4,0,0,1,0,44.79Z" transform="translate(-22.9 -21.98)"/><path class="cls-1" d="M149.8,66.77h-1.86a22.4,22.4,0,1,1,0-44.79h1.86a22.4,22.4,0,1,1,0,44.79Z" transform="translate(-22.9 -21.98)"/><path class="cls-1" d="M47.16,66.77H45.3A22.4,22.4,0,1,1,45.3,22h1.86a22.4,22.4,0,1,1,0,44.79Z" transform="translate(-22.9 -21.98)"/><path class="cls-1" d="M352.28,168.09h-1.86a22.4,22.4,0,1,1,0-44.79h1.86a22.4,22.4,0,1,1,0,44.79Z" transform="translate(-22.9 -21.98)"/><path class="cls-1" d="M251.48,168.09h-1.87a22.4,22.4,0,0,1,0-44.79h1.87a22.4,22.4,0,0,1,0,44.79Z" transform="translate(-22.9 -21.98)"/><path class="cls-1" d="M149.8,168.09h-1.86a22.4,22.4,0,1,1,0-44.79h1.86a22.4,22.4,0,1,1,0,44.79Z" transform="translate(-22.9 -21.98)"/><path class="cls-1" d="M47.16,168.09H45.3a22.4,22.4,0,1,1,0-44.79h1.86a22.4,22.4,0,1,1,0,44.79Z" transform="translate(-22.9 -21.98)"/><path class="cls-1" d="M352.28,269.4h-1.86a22.4,22.4,0,1,1,0-44.79h1.86a22.4,22.4,0,1,1,0,44.79Z" transform="translate(-22.9 -21.98)"/><path class="cls-1" d="M251.48,269.4h-1.87a22.4,22.4,0,0,1,0-44.79h1.87a22.4,22.4,0,0,1,0,44.79Z" transform="translate(-22.9 -21.98)"/><path class="cls-1" d="M149.8,269.4h-1.86a22.4,22.4,0,1,1,0-44.79h1.86a22.4,22.4,0,1,1,0,44.79Z" transform="translate(-22.9 -21.98)"/><path class="cls-1" d="M47.16,269.4H45.3a22.4,22.4,0,1,1,0-44.79h1.86a22.4,22.4,0,1,1,0,44.79Z" transform="translate(-22.9 -21.98)"/><path class="cls-1" d="M352.28,370.72h-1.86a22.4,22.4,0,1,1,0-44.79h1.86a22.4,22.4,0,1,1,0,44.79Z" transform="translate(-22.9 -21.98)"/><path class="cls-1" d="M251.48,370.72h-1.87a22.4,22.4,0,0,1,0-44.79h1.87a22.4,22.4,0,0,1,0,44.79Z" transform="translate(-22.9 -21.98)"/><path class="cls-1" d="M149.8,370.72h-1.86a22.4,22.4,0,1,1,0-44.79h1.86a22.4,22.4,0,1,1,0,44.79Z" transform="translate(-22.9 -21.98)"/><path class="cls-1" d="M47.16,370.72H45.3a22.4,22.4,0,1,1,0-44.79h1.86a22.4,22.4,0,1,1,0,44.79Z" transform="translate(-22.9 -21.98)"/></svg>