<svg id="Capa_1" data-name="Capa 1" xmlns="http://www.w3.org/2000/svg" viewBox="0 0 447.82 614.1"><defs><style>.cls-1{fill:#fff;}</style></defs><title>Mark</title><path class="cls-1" d="M660.33,151h0a42.48,42.48,0,0,0-59,11L453,378.26,351.49,228.79l164.17-.57s34.58-4.44,37.83-40.11c0,0,1.36-37.81-39-41.56l-237.75.19,1.1.09c-15.21-1-27.1,7.69-27.1,7.69-27.66,22.76-11.87,53.84-11.87,53.84l164.05,242.9L238.41,691.19a42.45,42.45,0,0,0,11,59h0a42.46,42.46,0,0,0,59-11L454.18,526.71,554,673.6l-164.29.57s-34.58,4.44-37.83,40.11c0,0-1.36,37.81,39,41.56l237.75-.19-.9-.08c15.18,1,27-7.68,27-7.68C682.34,725.13,666.56,694,666.56,694L504.24,453.71,671.33,210.05A42.46,42.46,0,0,0,660.33,151Z" transform="translate(-230.96 -143.57)"/></svg>